# xmcd
#
# Track frame offsets: 
#        150
#        22105
#        37562
#        54556
#        80280
#        93446
#        105869
#        116723
#        137635
#        160799
#        178457
#        203783
#        224189
#        255576
#        281493
#        316223
#        341953
#
# Disc length: 4785 seconds
#
# Revision: 3
# Processed by: cddbd v1.5.2PL0 Copyright (c) Steve Scherf et al.
# Submitted via: ExactAudioCopyFreeDBPlugin 1.0
#
DISCID=f312af11
DTITLE=Oscar Peterson Trio - Night Train and The Jazz Soul of Oscar Pete
DTITLE=rson
DYEAR=1959
DGENRE=Jazz
TTITLE0=Night Train
TTITLE1=C Jam Blues
TTITLE2=Georgia on My Mind
TTITLE3=Bags' Groove
TTITLE4=Moten Swing
TTITLE5=Easy Does It
TTITLE6=Honey Dripper
TTITLE7=Things Ain't What They Used to Be
TTITLE8=I Got It Bad (and That Ain't Good)
TTITLE9=Band Call
TTITLE10=Hymn to Freedom
TTITLE11=Liza
TTITLE12=Con Alma
TTITLE13=Close Your Eyes
TTITLE14=The Maidens of Cadiz
TTITLE15=My Heart Stood Still
TTITLE16=Woody'n You
EXTD=YEAR: 1959
EXTT0=
EXTT1=
EXTT2=
EXTT3=
EXTT4=
EXTT5=
EXTT6=
EXTT7=
EXTT8=
EXTT9=
EXTT10=
EXTT11=
EXTT12=
EXTT13=
EXTT14=
EXTT15=
EXTT16=
PLAYORDER=
